# xmcd CD database file
#
# Track frame offsets:
#	150
#	23800
#	49840
#	63893
#	103963
#	123644
#	146914
#
# Disc length: 2268 seconds
#
# Revision: 0
# Processed by: cddbd v1.4PL0 Copyright (c) Steve Scherf et al.
# Submitted via: CDex 1.51
#
DISCID=6708da07
DTITLE=Rodgau Jazz Big Band - The 2nd One
DYEAR=1900
DGENRE=Jazz
TTITLE0=Shiny Stockings
TTITLE1=Stolen Moments
TTITLE2=Every Day I habe the Blues
TTITLE3=Tribute
TTITLE4=Traveling light
TTITLE5=Fernandos Getaway
TTITLE6=It don't mean a thing
EXTD=
EXTT0=
EXTT1=
EXTT2=
EXTT3=
EXTT4=
EXTT5=
EXTT6=
PLAYORDER=
